<svg xmlns="http://www.w3.org/2000/svg" xmlns:xlink="http://www.w3.org/1999/xlink" version="1.1" x="0px" y="0px" viewBox="0 0 128 128" style="enable-background:new 0 0 128 128;" xml:space="preserve"><g><path d="M73.09,75h-2.021c0.495,3.94,3.859,7,7.931,7s7.436-3.06,7.931-7H84.91c-0.478,2.833-2.942,5-5.91,5   S73.569,77.833,73.09,75z"/><path d="M71.082,67.916c0.999-1.298,2.306-2.343,3.814-3.025c-0.14-10.704-1.003-21.429-2.445-30.373   c-2.105-0.725-3.82-2.405-4.552-4.603l-0.206-0.618C65.932,34.205,65,39.577,65,45C65,53.271,67.151,61.345,71.082,67.916z"/><path d="M79,66c-4.072,0-7.436,3.06-7.931,7h15.861C86.436,69.06,83.072,66,79,66z"/><path d="M82.858,75h-7.716c0.447,1.72,1.999,3,3.858,3S82.411,76.72,82.858,75z"/><path d="M58.202,29.283l4.849-14.574c0.137-0.408,0.519-0.684,0.949-0.684s0.812,0.276,0.949,0.684l4.849,14.574   c0.654,1.968,2.374,3.382,4.381,3.604c4.696,0.522,7.831-0.878,9.831-2.562C76.486,20.529,66.095,9.049,63.999,9   C61.905,9.049,51.51,20.533,43.987,30.331c1.999,1.679,5.136,3.08,9.835,2.557C55.828,32.665,57.548,31.25,58.202,29.283z"/><path d="M43.09,75h-2.021c0.495,3.94,3.859,7,7.931,7s7.436-3.06,7.931-7H54.91c-0.478,2.833-2.942,5-5.91,5   S43.569,77.833,43.09,75z"/><path d="M64,7c4.054,0,18.065,17.601,21.42,21.892c0.922-1.135,1.405-2.197,1.543-2.712C85.14,23.122,66.996,3,64,3   c-3,0-21.183,20.169-22.97,23.192c0.126,0.485,0.607,1.556,1.545,2.707C45.92,24.619,59.944,7,64,7z"/><ellipse cx="28" cy="66.5" rx="2" ry="3.5"/><path d="M49,66c-4.072,0-7.436,3.06-7.931,7h15.861C56.436,69.06,53.072,66,49,66z"/><path d="M52.858,75h-7.716c0.447,1.72,1.999,3,3.858,3S52.411,76.72,52.858,75z"/><path d="M75.935,85.805c0.116-0.584,0.192-1.332,0.23-2.221C72.028,82.358,69,78.529,69,74c0-1.488,0.336-2.897,0.922-4.168   C65.458,62.797,63,54.006,63,45c0-6.508,1.285-12.951,3.706-18.672L64,18.192l-3.899,11.722c-0.732,2.199-2.447,3.879-4.552,4.604   c-1.442,8.944-2.305,19.669-2.445,30.373C56.574,66.461,59,69.949,59,74c0,4.529-3.028,8.358-7.165,9.584   c0.038,0.888,0.114,1.636,0.23,2.221c0.065,0.326-0.037,0.663-0.271,0.899c-0.16,0.162-15.946,16.459-7.048,38.183   c0.049,0.119,0.243,0.113,0.294,0.061c0.024-0.024,0.053-0.067,0.052-0.132l-0.017-1.015c-0.132-7.292-0.482-26.66,8.581-30.714   c0.369-0.167,0.806-0.092,1.1,0.19c0.294,0.281,0.388,0.713,0.238,1.091c-0.077,0.193-7.534,19.427,2.37,30.63   c0.075,0.003,0.176-0.031,0.21-0.077c0.028-0.038,0.058-0.101,0.033-0.186c-1.78-6.281-6.603-27.128,6.054-31.678   c0.219-0.079,0.457-0.079,0.676,0c12.656,4.549,7.834,25.396,6.054,31.677c-0.024,0.085,0.005,0.148,0.033,0.186   c0.034,0.044,0.132,0.078,0.21,0.077c9.906-11.203,2.447-30.437,2.37-30.63c-0.149-0.378-0.056-0.81,0.238-1.091   c0.294-0.283,0.732-0.356,1.1-0.19c9.063,4.054,8.713,23.422,8.581,30.714l-0.017,1.015c-0.001,0.065,0.027,0.108,0.052,0.132   c0.052,0.052,0.245,0.059,0.295-0.062c8.913-21.761-6.888-38.02-7.048-38.182C75.971,86.469,75.869,86.131,75.935,85.805z"/><path d="M105.319,34.765c-4.116-2.05-7.319-2.312-9.519-0.775c-2.733,1.91-5.587,7.805-3.664,25.049   c1.467,13.157,0.061,22.324-4.181,27.247c-1.781,2.066-4.014,3.327-6.644,3.79c1.203,1.839,2.52,4.17,3.665,6.906   c3.06-0.061,5.721-1.547,7.982-4.424c1.265-1.611,2.345-3.409,3.239-5.34C94.884,86.256,94,84.504,94,82.5   c0-3.033,2.019-5.5,4.5-5.5c0.178,0,0.354,0.016,0.527,0.041c0.212-1.621,0.346-3.334,0.4-5.118C97.468,71.548,96,69.313,96,66.5   c0-2.585,1.241-4.68,2.961-5.297c-0.162-1.572-0.341-3.036-0.502-4.276C96.484,56.571,95,54.329,95,51.5   c0-2.186,0.892-4.017,2.205-4.909c-0.15-2.436-0.011-4.7,1.33-5.717c0.832-0.63,1.965-0.684,3.366-0.159   c3.627,1.353,6.281,0.488,6.935-1.018C109.4,38.396,108.533,36.366,105.319,34.765z"/><ellipse cx="98.5" cy="82.5" rx="2.5" ry="3.5"/><ellipse cx="29" cy="51.5" rx="2" ry="3.5"/><ellipse cx="99" cy="51.5" rx="2" ry="3.5"/><ellipse cx="100" cy="66.5" rx="2" ry="3.5"/><path d="M76.871,100.759c0.4-0.201,0.815-0.366,1.248-0.485c-0.615-1.422-1.357-2.67-2.26-3.646   C76.187,97.756,76.548,99.163,76.871,100.759z"/><path d="M46.688,90.076c-2.63-0.463-4.863-1.724-6.644-3.79c-4.241-4.922-5.647-14.089-4.181-27.247   c1.923-17.244-0.931-23.14-3.664-25.049c-2.199-1.538-5.403-1.275-9.519,0.775c-3.214,1.601-4.081,3.63-3.516,4.932   c0.653,1.506,3.307,2.373,6.935,1.018c1.402-0.524,2.534-0.471,3.366,0.159c1.341,1.017,1.48,3.281,1.33,5.717   C32.108,47.483,33,49.314,33,51.5c0,2.829-1.484,5.071-3.46,5.427c-0.161,1.24-0.34,2.703-0.502,4.276   C30.759,61.82,32,63.915,32,66.5c0,2.813-1.468,5.048-3.427,5.423c0.055,1.784,0.188,3.497,0.4,5.118   C29.146,77.016,29.321,77,29.5,77c2.481,0,4.5,2.467,4.5,5.5c0,2.004-0.884,3.756-2.198,4.717c0.895,1.931,1.974,3.729,3.239,5.34   c2.261,2.877,4.936,4.341,7.983,4.421C44.169,94.244,45.486,91.914,46.688,90.076z"/><ellipse cx="29.5" cy="82.5" rx="2.5" ry="3.5"/><path d="M51.129,100.759c0.322-1.597,0.684-3.003,1.012-4.131c-0.903,0.976-1.645,2.224-2.26,3.646   C50.314,100.393,50.729,100.558,51.129,100.759z"/><path d="M64,95.072c-1.441,0.599-3.902,2.135-5.459,5.895C60.239,100.336,62.087,100,64,100s3.761,0.336,5.459,0.967   C67.902,97.207,65.441,95.672,64,95.072z"/></g></svg>
